<?xml version="1.0" encoding="UTF-8" standalone="no"?>
<svg width="57px" height="38px" viewBox="0 0 57 38" version="1.1" xmlns="http://www.w3.org/2000/svg" xmlns:xlink="http://www.w3.org/1999/xlink" xmlns:sketch="http://www.bohemiancoding.com/sketch/ns">
    <!-- Generator: Sketch 3.3.2 (12043) - http://www.bohemiancoding.com/sketch -->
    <title>Email</title>
    <desc>Created with Sketch.</desc>
    <defs></defs>
    <g id="Welcome" stroke="none" stroke-width="1" fill="none" fill-rule="evenodd" sketch:type="MSPage">
        <g id="Desktop-HD" sketch:type="MSArtboardGroup" transform="translate(-891.000000, -667.000000)" fill="#FFFFFF">
            <g id="Notified" sketch:type="MSLayerGroup" transform="translate(466.000000, 599.000000)">
                <g id="Email" transform="translate(425.000000, 68.000000)" sketch:type="MSShapeGroup">
                    <path d="M41.0805109,1.20218182 C40.9878227,0.812909091 40.7424609,0.476090909 40.3988074,0.265727273 C40.055062,0.0554545455 39.640859,-0.011 39.2476003,0.0807272727 L1.173805,8.97045455 C0.780454472,9.06218182 0.4402917,9.305 0.227724416,9.64509091 C0.0151571313,9.98518182 -0.0519935536,10.3951818 0.0406946011,10.7843636 L6.24225786,36.7975455 C6.4077921,37.4915455 7.03346011,37.9595455 7.72407413,37.9595455 C7.83991136,37.9595455 7.95758582,37.9463636 8.07526027,37.919 L46.1488719,29.0296364 C46.5422224,28.9378182 46.8823852,28.6950909 47.0949525,28.355 C47.3075197,28.0148182 47.3746704,27.6049091 47.2819823,27.2157273 L41.0805109,1.20218182 L41.0805109,1.20218182 Z M41.2699291,15.1314545 L34.7477695,11.3822727 L38.915062,5.25327273 L41.2699291,15.1314545 L41.2699291,15.1314545 Z M3.80747139,13.4500909 L10.303726,17.0894545 L6.16252216,23.3282727 L3.80747139,13.4500909 L3.80747139,13.4500909 Z M5.65902981,11.0218182 L36.161884,3.9 L24.2410298,21.432 L5.65902981,11.0218182 L5.65902981,11.0218182 Z M8.85847059,34.6372727 L7.12587268,27.3700909 L12.9616438,18.5784545 L23.9672828,24.744 C24.2037341,24.8765455 24.4618646,24.9399091 24.7166882,24.9399091 C25.2086978,24.9399091 25.6893167,24.704 25.9819871,24.2736364 L33.0424545,13.8898182 L42.2334633,19.1730909 L43.9659694,26.4402727 L8.85847059,34.6372727 L8.85847059,34.6372727 Z" id="Shape"></path>
                    <path d="M54.695473,1.05272727 L45.1223207,1.05272727 C44.2806865,1.05272727 43.5986156,1.72790909 43.5986156,2.56063636 C43.5986156,3.39336364 44.2807784,4.06854545 45.1223207,4.06854545 L54.695473,4.06854545 C55.5371072,4.06854545 56.2191781,3.39336364 56.2191781,2.56063636 C56.2191781,1.72790909 55.5371072,1.05272727 54.695473,1.05272727 L54.695473,1.05272727 Z" id="Shape"></path>
                    <path d="M53.0865205,8.73290909 L46.7311813,8.73290909 C45.8895471,8.73290909 45.2074762,9.40809091 45.2074762,10.2408182 C45.2074762,11.0735455 45.889639,11.7487273 46.7311813,11.7487273 L53.0865205,11.7487273 C53.9281547,11.7487273 54.6102256,11.0735455 54.6102256,10.2408182 C54.6103175,9.40809091 53.9281547,8.73290909 53.0865205,8.73290909 L53.0865205,8.73290909 Z" id="Shape"></path>
                    <path d="M51.5613457,16.4130909 L48.2567236,16.4130909 C47.4150894,16.4130909 46.7330185,17.0882727 46.7330185,17.921 C46.7330185,18.7537273 47.4151813,19.4289091 48.2567236,19.4289091 L51.5613457,19.4289091 C52.4029799,19.4289091 53.0850508,18.7537273 53.0850508,17.921 C53.0850508,17.0882727 52.402888,16.4130909 51.5613457,16.4130909 L51.5613457,16.4130909 Z" id="Shape"></path>
                </g>
            </g>
        </g>
    </g>
</svg>