<?xml version="1.0" encoding="UTF-8" standalone="no"?>
<svg width="50px" height="50px" viewBox="0 0 50 50" version="1.1" xmlns="http://www.w3.org/2000/svg" xmlns:xlink="http://www.w3.org/1999/xlink" xmlns:sketch="http://www.bohemiancoding.com/sketch/ns">
    <!-- Generator: Sketch 3.3.2 (12043) - http://www.bohemiancoding.com/sketch -->
    <title>Shape</title>
    <desc>Created with Sketch.</desc>
    <defs></defs>
    <g id="Welcome" stroke="none" stroke-width="1" fill="none" fill-rule="evenodd" sketch:type="MSPage">
        <g id="Desktop-HD" sketch:type="MSArtboardGroup" transform="translate(-1356.000000, -27.000000)" fill="#2B3657">
            <g id="Social" sketch:type="MSLayerGroup" transform="translate(1292.000000, 27.000000)">
                <path d="M88.826,0 C75.137,0 64,11.137 64,24.826 C64,38.514 75.137,49.652 88.826,49.652 C102.514,49.652 113.652,38.514 113.652,24.826 C113.652,11.137 102.516,0 88.826,0 Z M95,25.7 L90.961,25.7 L90.961,40.096 L84.976,40.096 L84.976,25.7 L82.131,25.7 L82.131,20.612 L84.976,20.612 L84.976,17.321 C84.976,14.964 86.096,11.281 91.016,11.281 L95.451,11.298 L95.451,16.237 L92.232,16.237 C91.708,16.237 90.963,16.499 90.963,17.623 L90.963,20.613 L95.523,20.613 L95,25.7 Z" id="Shape" sketch:type="MSShapeGroup"></path>
            </g>
        </g>
    </g>
</svg>