<?xml version="1.0" encoding="UTF-8" standalone="no"?>
<svg width="326px" height="121px" viewBox="0 0 326 121" version="1.1" xmlns="http://www.w3.org/2000/svg" xmlns:xlink="http://www.w3.org/1999/xlink" xmlns:sketch="http://www.bohemiancoding.com/sketch/ns">
    <!-- Generator: Sketch 3.3.2 (12043) - http://www.bohemiancoding.com/sketch -->
    <title>Hark</title>
    <desc>Created with Sketch.</desc>
    <defs>
        <linearGradient x1="55.8695972%" y1="0%" x2="55.8695972%" y2="100%" id="linearGradient-1">
            <stop stop-color="#F48644" offset="0%"></stop>
            <stop stop-color="#F3610E" offset="100%"></stop>
        </linearGradient>
    </defs>
    <g id="Page-1" stroke="none" stroke-width="1" fill="none" fill-rule="evenodd" sketch:type="MSPage">
        <g id="Artboard-1" sketch:type="MSArtboardGroup" transform="translate(-492.000000, -145.000000)" fill="url(#linearGradient-1)">
            <path d="M497.960922,264.279309 C495.862479,264.279309 494.426724,264.113645 493.653613,263.782312 C492.880503,263.450978 492.493953,262.953986 492.493953,262.29132 L492.493953,155.271274 C492.493953,154.608608 492.880503,154.111616 493.653613,153.780282 C494.426724,153.448949 495.862479,153.283285 497.960922,153.283285 C501.495141,153.283285 503.262224,153.945942 503.262224,155.271274 L503.262224,203.314329 C503.262224,203.756106 503.427888,203.976991 503.759222,203.976991 L561.907884,203.976991 C562.239218,203.976991 562.404882,203.756106 562.404882,203.314329 L562.404882,155.271274 C562.404882,154.608608 562.791431,154.111616 563.564542,153.780282 C564.337652,153.448949 565.773407,153.283285 567.87185,153.283285 C571.516514,153.283285 573.338818,153.945942 573.338818,155.271274 L573.338818,262.29132 C573.338818,263.616652 571.516514,264.279309 567.87185,264.279309 C565.773407,264.279309 564.337652,264.113645 563.564542,263.782312 C562.791431,263.450978 562.404882,262.953986 562.404882,262.29132 L562.404882,214.248265 C562.404882,213.806488 562.239218,213.585602 561.907884,213.585602 L503.759222,213.585602 C503.427888,213.585602 503.262224,213.806488 503.262224,214.248265 L503.262224,262.29132 C503.262224,263.616652 501.495141,264.279309 497.960922,264.279309 L497.960922,264.279309 Z M602.827314,241.417441 C602.827314,244.288994 603.351917,246.718734 604.401138,248.706732 C605.45036,250.694731 606.858504,252.268539 608.625614,253.428205 C610.392723,254.587871 612.491135,255.416191 614.920911,255.91319 C617.350686,256.41019 619.890868,256.658686 622.541533,256.658686 C625.744419,256.658686 628.836815,256.216915 631.818813,255.333361 C634.80081,254.449806 637.423824,253.4006 639.687934,252.185712 C641.952043,250.970824 643.774348,249.728344 645.154902,248.458234 C646.535456,247.188124 647.225723,246.22175 647.225723,245.559084 L647.225723,217.230248 C647.225723,216.346693 646.839174,215.904922 646.066063,215.904922 C645.845175,215.904922 645.431015,215.960144 644.823571,216.070588 C644.216127,216.181032 643.52586,216.346696 642.752749,216.567585 C639.108085,217.672029 634.966484,218.721234 630.327821,219.715234 C625.689158,220.709233 621.354282,222.034545 617.323063,223.691211 C613.291844,225.347876 609.868121,227.55673 607.05179,230.317839 C604.235458,233.078948 602.827314,236.778778 602.827314,241.417441 L602.827314,241.417441 Z M659.981983,264.776306 C656.558208,264.776306 653.824751,263.782321 651.78153,261.794323 C649.73831,259.806325 648.440608,257.763135 647.888386,255.664692 C647.446609,255.996025 646.452624,256.686292 644.906403,257.735513 C643.360182,258.784735 641.344603,259.889162 638.859605,261.048827 C636.374607,262.208493 633.503097,263.230088 630.244988,264.113643 C626.98688,264.997198 623.369881,265.438969 619.393885,265.438969 C615.528332,265.438969 611.938944,264.997198 608.625614,264.113643 C605.312283,263.230088 602.413162,261.821944 599.928164,259.889167 C597.443166,257.956391 595.510419,255.526652 594.129864,252.599876 C592.74931,249.673101 592.059043,246.166545 592.059043,242.080104 C592.059043,235.674331 593.770905,230.566356 597.19468,226.756026 C600.618455,222.945696 604.870499,219.936132 609.950939,217.727245 C615.03138,215.518358 620.443072,213.778885 626.186179,212.508775 C631.929285,211.238665 637.120092,209.885742 641.758755,208.449966 C643.41542,208.008188 644.685511,207.483585 645.569066,206.876141 C646.452621,206.268697 646.894392,205.302324 646.894392,203.976991 C646.894392,198.896551 645.154919,194.893003 641.675922,191.966228 C638.196925,189.039452 633.144171,187.576087 626.51751,187.576087 C623.093735,187.576087 620.084171,187.935025 617.488729,188.652914 C614.893287,189.370802 612.601601,190.199122 610.613602,191.137899 C608.625604,192.076676 606.968963,192.904997 605.643631,193.622885 C604.318299,194.340773 603.269093,194.699712 602.495983,194.699712 C601.612428,194.699712 601.170657,194.20272 601.170657,193.208721 C601.170657,192.325166 601.336321,191.137907 601.667654,189.646908 C601.998987,188.155909 602.440758,186.96865 602.99298,186.085095 C603.434757,185.532873 604.37352,184.814996 605.809297,183.931441 C607.245073,183.047886 609.039767,182.219566 611.193432,181.446455 C613.347097,180.673345 615.804447,180.010689 618.565556,179.458467 C621.326665,178.906245 624.198175,178.630138 627.180173,178.630138 C637.672387,178.630138 645.375765,181.115099 650.290539,186.085095 C655.205313,191.055091 657.662663,198.565195 657.662663,208.615631 L657.662663,248.872398 C657.662663,251.412618 658.076823,253.290144 658.905156,254.505032 C659.733488,255.71992 660.975969,256.437797 662.632634,256.658686 C662.853523,256.879575 663.322904,256.990018 664.040793,256.990018 L665.614617,256.990018 C666.608616,256.990018 667.105608,257.266124 667.105608,257.818346 C667.105608,258.260124 666.884723,258.867558 666.442945,259.640669 C666.001168,260.413779 665.421344,261.186878 664.703455,261.959989 C663.985567,262.733099 663.212468,263.395755 662.384135,263.947977 C661.555803,264.500199 660.755093,264.776306 659.981983,264.776306 L659.981983,264.776306 Z M690.298807,264.279309 C688.310809,264.279309 686.957886,264.113645 686.239997,263.782312 C685.522109,263.450978 685.16317,262.953986 685.16317,262.29132 L685.16317,198.344357 C685.16317,195.693693 684.887063,193.595282 684.334842,192.049061 C683.78262,190.50284 683.147574,189.260359 682.429686,188.321582 C681.711798,187.382805 681.076752,186.692538 680.52453,186.250761 C679.972309,185.808983 679.696202,185.367213 679.696202,184.925435 C679.696202,184.483658 679.972309,183.959055 680.52453,183.351611 C681.076752,182.744167 681.767019,182.136732 682.595352,181.529288 C683.423684,180.921844 684.252005,180.397241 685.080337,179.955464 C685.90867,179.513687 686.598937,179.292801 687.151159,179.292801 C688.586935,179.292801 690.188354,180.369618 691.955464,182.523283 C693.722574,184.676947 694.882222,188.183503 695.434444,193.043055 C697.201554,190.39239 699.244744,188.017872 701.564075,185.919429 C703.552073,184.041875 705.981813,182.357624 708.853366,180.866625 C711.724919,179.375627 715.0382,178.630138 718.793309,178.630138 C723.431971,178.630138 727.04897,179.430848 729.644412,181.032291 C732.239855,182.633734 733.537556,183.931436 733.537556,184.925435 C733.537556,185.477657 733.178618,186.305977 732.460729,187.410421 C731.742841,188.514864 730.997353,189.453627 730.224242,190.226738 C729.451132,191.331181 728.788476,191.883395 728.236254,191.883395 C727.904921,191.883395 727.435539,191.69012 726.828095,191.303565 C726.220651,190.91701 725.447552,190.475239 724.508775,189.978239 C723.569998,189.48124 722.437961,189.039469 721.112628,188.652914 C719.787296,188.266358 718.130656,188.073084 716.142657,188.073084 C713.271104,188.073084 710.565258,188.818572 708.025038,190.309571 C705.484817,191.80057 703.275963,193.733317 701.398409,196.10787 C699.520855,198.482424 698.057489,201.133049 697.008268,204.059824 C695.959047,206.9866 695.434444,209.885721 695.434444,212.757274 L695.434444,262.456986 C695.434444,263.009208 695.075505,263.450978 694.357617,263.782312 C693.639728,264.113645 692.286805,264.279309 690.298807,264.279309 L690.298807,264.279309 Z M754.411435,264.279309 C752.312993,264.279309 750.932459,264.113645 750.269793,263.782312 C749.607127,263.450978 749.275798,262.953986 749.275798,262.29132 L749.275798,146.987988 C749.275798,146.325322 749.607127,145.82833 750.269793,145.496997 C750.932459,145.165664 752.312993,145 754.411435,145 C756.399434,145 757.752357,145.165664 758.470245,145.496997 C759.188134,145.82833 759.547072,146.270101 759.547072,146.822323 L759.547072,219.052571 C764.517068,217.50635 769.293715,215.46316 773.877156,212.92294 C778.460597,210.382719 782.574587,207.53882 786.219251,204.391156 C789.863915,201.243492 792.95631,197.847379 795.496531,194.202715 C798.036751,190.558051 799.859055,186.858221 800.963499,183.103112 C801.184388,182.550891 801.570937,182.081509 802.123159,181.694954 C802.675381,181.308399 804.055914,181.115124 806.264802,181.115124 C808.2528,181.115124 809.522891,181.253177 810.075113,181.529288 C810.627335,181.805399 810.903441,182.164338 810.903441,182.606115 C810.903441,183.158337 810.792999,183.738161 810.57211,184.345605 C810.351221,184.953049 810.130336,185.643316 809.909447,186.416427 C807.70056,192.932644 804.055951,198.813717 798.97551,204.059824 C793.89507,209.305931 788.041607,214.027357 781.414946,218.224242 C784.176054,219.43913 786.743847,221.261435 789.118401,223.691211 C791.492955,226.120986 793.646587,228.854443 795.579363,231.891663 C797.51214,234.928883 799.306834,238.10411 800.963499,241.417441 C802.620164,244.730772 804.221583,247.93361 805.767804,251.026052 C807.534914,254.00805 809.301997,255.719912 811.069107,256.161689 C811.621329,256.493022 812.394428,256.713908 813.388427,256.824352 C814.382426,256.934796 815.321189,256.990018 816.204744,256.990018 C817.198743,256.990018 817.695735,257.266124 817.695735,257.818346 C817.695735,258.260124 817.47485,258.867558 817.033072,259.640669 C816.591295,260.413779 816.011471,261.186878 815.293583,261.959989 C814.575694,262.733099 813.774985,263.395755 812.89143,263.947977 C812.007875,264.500199 811.179555,264.776306 810.406444,264.776306 C807.203558,264.776306 804.746208,264.251703 803.03432,263.202482 C801.322433,262.15326 799.914288,260.634673 798.809845,258.646675 C796.821846,255.002011 794.833878,251.30218 792.845879,247.547072 C790.857881,243.791964 788.814691,240.285408 786.716248,237.0273 C784.617805,233.769191 782.408951,230.925292 780.08962,228.495516 C777.770288,226.06574 775.285328,224.353878 772.634663,223.359879 C770.646665,224.243434 768.437811,225.209808 766.008035,226.259029 C763.578259,227.30825 761.424626,228.10896 759.547072,228.661182 L759.547072,262.456986 C759.547072,263.009208 759.188134,263.450978 758.470245,263.782312 C757.752357,264.113645 756.399434,264.279309 754.411435,264.279309 L754.411435,264.279309 Z" id="Hark" sketch:type="MSShapeGroup"></path>
        </g>
    </g>
</svg>