<?xml version="1.0" encoding="UTF-8" standalone="no"?>
<svg width="50px" height="50px" viewBox="0 0 50 50" version="1.1" xmlns="http://www.w3.org/2000/svg" xmlns:xlink="http://www.w3.org/1999/xlink" xmlns:sketch="http://www.bohemiancoding.com/sketch/ns">
    <!-- Generator: Sketch 3.3.2 (12043) - http://www.bohemiancoding.com/sketch -->
    <title>Shape</title>
    <desc>Created with Sketch.</desc>
    <defs></defs>
    <g id="Welcome" stroke="none" stroke-width="1" fill="none" fill-rule="evenodd" sketch:type="MSPage">
        <g id="Desktop-HD" sketch:type="MSArtboardGroup" transform="translate(-1292.000000, -27.000000)" fill="#2B3657">
            <g id="Social" sketch:type="MSLayerGroup" transform="translate(1292.000000, 27.000000)">
                <path d="M0.348,24.826 C0.348,38.514 11.485,49.652 25.174,49.652 C38.862,49.652 50,38.514 50,24.826 C50,11.137 38.864,0 25.174,0 C11.485,0 0.348,11.137 0.348,24.826 Z M36.249,19.144 C36.26,19.39 36.266,19.638 36.266,19.886 C36.266,27.437 30.52,36.141 20.007,36.141 C16.78,36.141 13.776,35.198 11.248,33.576 C11.695,33.629 12.15,33.656 12.611,33.656 C15.289,33.656 17.752,32.742 19.708,31.21 C17.208,31.164 15.097,29.512 14.37,27.241 C14.718,27.307 15.077,27.344 15.444,27.344 C15.965,27.344 16.471,27.276 16.95,27.145 C14.336,26.621 12.367,24.312 12.367,21.542 C12.367,21.518 12.367,21.493 12.368,21.47 C13.138,21.897 14.019,22.155 14.955,22.184 C13.423,21.161 12.414,19.411 12.414,17.429 C12.414,16.381 12.695,15.399 13.187,14.555 C16.004,18.013 20.216,20.287 24.964,20.527 C24.866,20.108 24.817,19.673 24.817,19.224 C24.817,16.069 27.375,13.51 30.53,13.51 C32.174,13.51 33.657,14.204 34.701,15.314 C36.004,15.058 37.224,14.584 38.331,13.927 C37.901,15.262 36.998,16.381 35.815,17.089 C36.972,16.951 38.076,16.645 39.097,16.19 C38.335,17.334 37.366,18.341 36.249,19.144 Z" id="Shape" sketch:type="MSShapeGroup"></path>
            </g>
        </g>
    </g>
</svg>